<?xml version="1.0" encoding="utf-8"?>
<!-- Generator: Adobe Illustrator 16.0.0, SVG Export Plug-In . SVG Version: 6.00 Build 0)  -->
<!DOCTYPE svg PUBLIC "-//W3C//DTD SVG 1.1//EN" "http://www.w3.org/Graphics/SVG/1.1/DTD/svg11.dtd">
<svg version="1.1" id="图层_1" xmlns="http://www.w3.org/2000/svg" xmlns:xlink="http://www.w3.org/1999/xlink" x="0px" y="0px"
	 width="540.601px" height="387.6px" viewBox="40.8 202.2 540.601 387.6" enable-background="new 40.8 202.2 540.601 387.6"
	 xml:space="preserve">
<path d="M383.52,257.28c-59.159,0-107.1,47.94-107.1,107.1s47.94,107.101,107.1,107.101c59.16,0,107.101-47.94,107.101-107.101
	C490.62,305.22,442.68,257.28,383.52,257.28z M316.2,408.24v-20.4c10.2,17.34,45.899,16.32,45.899-2.04c0-17.34-51-15.3-51-48.96
	c0-34.68,57.12-28.56,57.12-20.4v18.36c-20.399-14.28-36.72-7.14-36.72,3.06c0,15.3,48.96,18.36,48.96,51
	C378.42,420.48,326.4,423.54,316.2,408.24z M440.64,369.48c-2.04,2.04-4.08,3.06-7.14,3.06s-5.1-1.02-7.14-3.06
	s-3.061-4.08-3.061-7.14c0-2.04,1.021-5.1,3.061-7.14s4.08-3.06,7.14-3.06s5.1,1.02,7.14,3.06s3.061,4.08,3.061,7.14
	S442.68,367.44,440.64,369.48z M448.8,335.82c0,0-20.399-11.22-40.8,0V416.4h-20.4v-97.92c0,0,30.601-14.28,61.2,0V335.82z
	 M225.42,202.2c-21.42,0-41.82,8.16-41.82,29.58v38.76h-42.84c-14.28,0-26.52,7.14-32.64,19.38L51,388.86
	c-7.14,12.24-10.2,25.5-10.2,38.76v79.56c0,13.261,12.24,11.221,26.52,11.221c1.02,0,14.28,0,24.48,0v11.22
	c0,32.64,28.56,59.16,61.2,59.16s61.2-25.5,61.2-57.12l0,0c61.2,0,112.2,0,173.399,0l0,0c0,32.64,23.46,58.14,56.101,58.14
	c32.64,0,56.1-26.52,56.1-58.14l0,0c51,0,81.601,0,81.601,0V202.2H225.42z M183.6,406.2H93.84l44.88-81.6h44.88V406.2z
	 M496.74,412.32c-6.12,14.279-15.3,27.54-26.521,38.76c-11.22,11.22-24.479,20.4-38.76,26.52c-15.3,6.12-31.62,9.181-47.94,9.181
	c-16.319,0-32.64-3.061-47.939-9.181c-14.28-6.119-27.54-15.3-38.76-26.52c-11.22-11.22-20.4-24.48-26.52-38.76
	c-6.12-15.301-9.18-31.62-9.18-47.94c0-16.32,3.06-32.64,9.18-47.94c6.12-14.28,15.3-27.54,26.52-38.76
	c11.22-11.22,24.48-20.4,38.76-26.52c15.3-6.12,31.62-9.18,47.939-9.18c16.32,0,32.641,3.06,47.94,10.2
	c14.28,6.12,27.54,15.3,38.76,26.52c11.221,11.22,20.4,24.48,26.521,38.76c6.12,15.3,9.18,31.62,9.18,47.94
	C505.92,380.7,502.86,397.02,496.74,412.32z"/>
</svg>
