<?xml version="1.0" encoding="utf-8"?>
<!-- Generator: Adobe Illustrator 16.0.0, SVG Export Plug-In . SVG Version: 6.00 Build 0)  -->
<!DOCTYPE svg PUBLIC "-//W3C//DTD SVG 1.1//EN" "http://www.w3.org/Graphics/SVG/1.1/DTD/svg11.dtd">
<svg version="1.1" id="图层_1" xmlns="http://www.w3.org/2000/svg" xmlns:xlink="http://www.w3.org/1999/xlink" x="0px" y="0px"
	 width="440.64px" height="440.64px" viewBox="0 0 440.64 440.64" enable-background="new 0 0 440.64 440.64" xml:space="preserve">
<g>
	<circle id="round_inactive" fill="#64686B" cx="219.067" cy="220.133" r="220.32"/>
	<path id="qq" fill="#FFFFFF" d="M316.988,286.228L316.988,286.228c4.895-1.223,8.566-24.479-1.225-47.734
		c-3.672-7.345-7.346-14.688-12.238-20.809c3.672-2.448,6.117-8.568,6.117-14.688c0-9.793-4.895-17.137-11.018-17.137
		c0-3.672,1.227-7.344,1.227-11.016c0-42.84-35.495-78.336-79.562-78.336c-44.063,0-79.559,35.496-79.559,78.336
		c0,3.672,0,8.568,1.224,12.24c-3.673,2.447-6.12,8.567-6.12,15.912c0,3.672,1.225,7.344,2.447,11.016
		c-4.896,4.896-9.792,12.239-14.688,20.808c-11.016,22.032-9.792,45.288-2.448,48.963c3.672,2.444,13.463-3.675,22.032-14.689
		c1.225,13.465,7.344,24.48,17.137,34.273c-15.912,4.895-25.705,13.463-24.48,23.256c1.225,12.237,22.031,19.584,44.064,17.135
		c17.135-2.447,30.6-8.568,35.496-15.912c1.223,0,2.447,0,4.895,0c2.449,0,4.896,0,7.345,0c6.119,7.344,18.359,13.465,34.271,15.912
		c22.031,2.449,41.615-4.895,42.84-15.912c1.225-8.566-8.565-18.359-24.479-23.256c8.566-8.568,14.688-19.584,17.135-31.824
		C304.748,280.109,313.316,287.453,316.988,286.228L316.988,286.228z"/>
	<rect y="-0.187" fill="#64686B" width="439.386" height="54.007"/>
	<rect x="1.254" y="386.633" fill="#64686B" width="439.386" height="54.007"/>
	<rect y="-0.187" fill="#64686B" width="75.82" height="440.827"/>
	<rect x="364.82" y="-0.281" fill="#64686B" width="75.82" height="440.827"/>
</g>
</svg>
