<?xml version="1.0" encoding="utf-8"?>
<!-- Generator: Adobe Illustrator 16.0.0, SVG Export Plug-In . SVG Version: 6.00 Build 0)  -->
<!DOCTYPE svg PUBLIC "-//W3C//DTD SVG 1.1//EN" "http://www.w3.org/Graphics/SVG/1.1/DTD/svg11.dtd">
<svg version="1.1" id="图层_1" xmlns="http://www.w3.org/2000/svg" xmlns:xlink="http://www.w3.org/1999/xlink" x="0px" y="0px"
	 width="440.64px" height="440.64px" viewBox="0 0 440.64 440.64" enable-background="new 0 0 440.64 440.64" xml:space="preserve">
<g>
	<circle id="round_active" fill="#0095E9" cx="220.32" cy="220.32" r="220.32"/>
	<path id="qq" fill="#FFFFFF" d="M318.24,286.416L318.24,286.416c4.896-1.223,8.568-24.479-1.223-47.733
		c-3.672-7.345-7.346-14.688-12.24-20.808c3.672-2.448,6.119-8.568,6.119-14.688c0-9.793-4.896-17.137-11.018-17.137
		c0-3.672,1.227-7.344,1.227-11.016c0-42.84-35.496-78.336-79.563-78.336c-44.063,0-79.561,35.496-79.561,78.336
		c0,3.672,0,8.568,1.224,12.24c-3.673,2.447-6.12,8.567-6.12,15.912c0,3.672,1.225,7.344,2.447,11.016
		c-4.896,4.896-9.792,12.24-14.688,20.806c-11.016,22.033-9.792,45.289-2.448,48.964c3.672,2.444,13.463-3.675,22.032-14.688
		c1.225,13.465,7.344,24.479,17.137,34.272c-15.912,4.896-25.705,13.463-24.48,23.256c1.225,12.237,22.031,19.584,44.064,17.136
		c17.135-2.447,30.6-8.568,35.496-15.912c1.223,0,2.447,0,4.896,0c2.449,0,4.896,0,7.346,0c6.119,7.344,18.359,13.465,34.271,15.912
		c22.029,2.448,41.615-4.896,42.84-15.912c1.225-8.566-8.566-18.359-24.479-23.256c8.565-8.568,14.688-19.585,17.136-31.824
		C306,280.296,314.568,287.64,318.24,286.416L318.24,286.416z"/>
</g>
<rect x="1.333" y="0.667" fill="#0095E9" width="439.307" height="74.82"/>
<rect x="1.333" y="365.82" fill="#0095E9" width="439.307" height="74.82"/>
<rect x="0.298" y="56.153" fill="#0095E9" width="62.522" height="337.333"/>
<rect x="378.119" y="56.153" fill="#0095E9" width="62.521" height="337.333"/>
</svg>
