<?xml version="1.0" encoding="utf-8"?>
<!-- Generator: Adobe Illustrator 16.0.0, SVG Export Plug-In . SVG Version: 6.00 Build 0)  -->
<!DOCTYPE svg PUBLIC "-//W3C//DTD SVG 1.1//EN" "http://www.w3.org/Graphics/SVG/1.1/DTD/svg11.dtd">
<svg version="1.1" id="图层_1" xmlns="http://www.w3.org/2000/svg" xmlns:xlink="http://www.w3.org/1999/xlink" x="0px" y="0px"
	 width="422.281px" height="385.561px" viewBox="0 0 422.281 385.561" enable-background="new 0 0 422.281 385.561"
	 xml:space="preserve">
<path d="M422.281,192.781c0,107.1-86.699,192.779-193.801,192.779c-59.161,0-111.181-29.58-146.88-70.38h23.46
	c31.621,30.6,75.48,53.04,123.42,53.04c97.92,0,176.461-76.5,176.461-174.421c0-97.919-79.562-177.479-176.461-177.479
	c-97.92,0-176.46,74.46-176.46,176.461h33.66L43.86,251.94L0,192.781h33.66C33.66,80.58,120.36,0,227.46,0
	C334.56,0,422.281,85.68,422.281,192.781z M102,193.801c0-69.359,56.101-126.479,126.48-126.479
	c69.36,0,126.479,56.101,126.479,126.479c0,69.359-56.102,126.479-126.479,126.479C158.101,320.28,102,264.18,102,193.801z
	 M217.262,241.74c0,4.079,3.059,8.159,9.18,11.22c6.119,3.062,13.26,5.102,21.42,5.102c13.262,0,26.521-5.102,37.74-14.279
	c11.219-10.2,17.34-22.44,17.34-37.739c0-11.221-3.062-20.4-9.18-25.5c-6.121-6.12-13.261-9.182-21.421-9.182
	c-5.102,0-10.2,1.021-14.28,4.08l7.141-23.46h41.82c2.038,0,4.079,0,5.102,0c1.02,0,1.02-1.02,2.037-3.06l6.121-16.32H263.16
	l-19.379,61.2h9.182c6.119-9.181,11.219-13.26,17.34-13.26c3.059,0,5.1,1.02,7.139,4.079c2.041,3.061,3.063,5.101,3.063,8.16
	c0,5.101-1.021,13.261-4.08,24.479c-3.063,10.198-7.143,18.358-11.223,23.46c-5.101,5.101-9.181,8.158-13.261,8.158
	s-8.159-2.04-11.219-7.14c-3.063-6.12-7.141-9.181-11.221-9.181c-3.061,0-5.102,1.021-6.119,3.061
	C217.262,237.66,217.262,239.7,217.262,241.74z M132.601,256.02h59.16l3.06-9.182c-9.181,0-13.261-3.061-13.261-9.18
	c0-2.04,0-4.08,1.021-6.12l30.601-100.979h-7.141c-10.199,7.141-25.5,11.22-44.88,11.22l-2.04,8.16h4.08
	c5.1,0,9.18,1.021,11.22,2.04c2.04,1.021,3.06,3.061,3.06,5.101s0,4.08-1.02,7.141l-21.42,68.34c-1.02,4.08-3.061,8.16-4.08,9.181
	c-1.02,2.039-3.061,3.062-5.1,3.062c-2.04,1.021-5.1,1.021-11.221,1.021L132.601,256.02z"/>
</svg>
