<?xml version="1.0" standalone="no"?><!DOCTYPE svg PUBLIC "-//W3C//DTD SVG 1.1//EN" "http://www.w3.org/Graphics/SVG/1.1/DTD/svg11.dtd"><svg class="icon" width="264px" height="264.00px" viewBox="0 0 1024 1024" version="1.1" xmlns="http://www.w3.org/2000/svg"><path fill="#000000" d="M896.1 384H640V127.9c0-35.4-28.7-64-64-64H448c-35.4 0-64 28.7-64 64V384H127.9c-35.4 0-64 28.7-64 64v128c0 35.4 28.7 64 64 64H384v256.1c0 35.4 28.7 64 64 64h128c35.4 0 64-28.7 64-64V640h256.1c35.4 0 64-28.7 64-64V448c0-35.4-28.6-64-64-64z" /></svg>