<?xml version="1.0" encoding="utf-8"?>
<!-- Generator: Adobe Illustrator 16.0.0, SVG Export Plug-In . SVG Version: 6.00 Build 0)  -->
<!DOCTYPE svg PUBLIC "-//W3C//DTD SVG 1.1//EN" "http://www.w3.org/Graphics/SVG/1.1/DTD/svg11.dtd">
<svg version="1.1" id="图层_1" xmlns="http://www.w3.org/2000/svg" xmlns:xlink="http://www.w3.org/1999/xlink" x="0px" y="0px"
	 width="440.64px" height="440.641px" viewBox="0 0 440.64 440.641" enable-background="new 0 0 440.64 440.641"
	 xml:space="preserve">
<g id="weibo_button_1_">
	<circle id="button__x23_64686B_3_" fill="#E90E24" cx="220.406" cy="220.32" r="220.32"/>
	<path fill="#FFFFFF" d="M181.238,252.145c7.344,2.446,9.793,11.016,4.896,19.584c-3.672,7.344-13.464,9.792-22.032,7.344
		c-7.344-2.448-9.792-11.016-3.672-19.584C162.879,252.145,172.671,249.696,181.238,252.145L181.238,252.145z M197.15,246.024
		c2.448,1.224,3.672,3.672,2.448,7.344c-1.224,2.448-4.896,3.672-8.567,2.448c-2.449-1.226-3.672-3.672-2.449-7.344
		C192.255,246.024,194.703,244.8,197.15,246.024L197.15,246.024z M186.135,198.288c46.511-3.672,85.679,15.912,90.576,46.512
		c2.447,30.602-33.049,58.752-79.56,62.426c-46.512,3.672-85.68-15.912-90.576-46.514
		C105.351,230.112,139.623,201.96,186.135,198.288L186.135,198.288z M227.75,269.28c9.793-20.808-2.445-42.84-24.478-47.736
		c-22.031-4.896-46.512,4.896-56.304,24.48c-9.792,20.808,0,42.84,22.032,48.96C189.807,302.328,217.959,291.313,227.75,269.28
		L227.75,269.28z M197.15,328.032c77.113,0,127.296-44.064,127.296-79.56c0-22.032-18.361-33.048-34.273-37.944
		c-3.672-1.225-7.344-1.225-3.672-7.344c3.672-11.017,4.896-20.809,0-26.928c-9.791-13.465-34.27-12.24-62.424,0
		c0,0-9.791,3.672-7.343-2.449c3.672-13.463,3.672-25.703-2.447-33.047c-14.688-14.688-56.305,0-91.8,35.496
		c-25.704,25.703-42.84,55.079-42.84,78.334C79.647,298.656,139.623,328.032,197.15,328.032L197.15,328.032z M303.638,179.929
		L303.638,179.929L303.638,179.929L303.638,179.929c-1.225,4.896,1.225,9.791,4.896,12.239c4.896,1.224,9.791-1.224,11.016-4.896
		c3.674-12.24,1.225-25.704-8.566-35.496c-9.793-9.792-22.033-13.465-34.273-11.016c-4.895,1.224-8.566,4.896-7.344,11.016
		c1.225,4.896,4.896,8.568,11.016,7.344l0,0c4.896-1.225,12.24,0,15.912,4.896C303.638,167.688,304.863,175.032,303.638,179.929
		L303.638,179.929z M357.494,198.288c8.568-24.48,2.449-51.408-14.688-72.216c-18.359-20.808-45.287-28.152-70.992-23.256l0,0
		c-4.896,1.224-9.791,7.344-8.568,12.239c1.227,4.896,7.344,9.793,12.24,8.568c18.361-3.672,36.721,1.225,50.184,15.912
		c13.465,14.688,15.912,34.271,11.018,51.408l0,0c-1.225,4.896,1.225,12.24,7.344,13.464
		C348.925,205.632,356.271,203.185,357.494,198.288L357.494,198.288L357.494,198.288z"/>
</g>
<polygon fill="#E90E24" points="0.087,0 220.406,0 0.087,220.32 "/>
<polygon fill="#E90E24" points="0.087,440.641 220.406,440.641 0.087,220.32 "/>
<polygon fill="#E90E24" points="440.726,440.641 440.726,220.32 220.406,440.641 "/>
<polygon fill="#E90E24" points="440.726,0 220.406,0 440.726,209.82 "/>
</svg>
