<?xml version="1.0" encoding="utf-8"?>
<!-- Generator: Adobe Illustrator 16.0.0, SVG Export Plug-In . SVG Version: 6.00 Build 0)  -->
<!DOCTYPE svg PUBLIC "-//W3C//DTD SVG 1.1//EN" "http://www.w3.org/Graphics/SVG/1.1/DTD/svg11.dtd">
<svg version="1.1" id="图层_1" xmlns="http://www.w3.org/2000/svg" xmlns:xlink="http://www.w3.org/1999/xlink" x="0px" y="0px"
	 width="400px" height="400px" viewBox="0 0 400 400" enable-background="new 0 0 400 400" xml:space="preserve">
<g id="weichat_button_1_">
	<circle id="button__x23_64686B_5_" fill="#50C232" cx="200" cy="201" r="200"/>
	<path id="weichat_icon_1_" fill="#FFFFFF" d="M242.223,156.555c3.332,0,5.555,0,8.889,0c-7.776-37.778-48.887-65.556-94.443-65.556
		c-52.222,0-94.445,35.556-94.445,80c0,25.556,14.445,46.667,37.778,63.333l-10,27.777l33.333-16.666
		c12.223,2.223,21.112,4.442,33.334,4.442c3.333,0,5.556,0,8.889,0c-2.222-6.668-3.333-13.333-3.333-20
		C162.222,189.889,196.667,156.555,242.223,156.555z M191.112,128.778c7.777,0,14.443,6.667,14.443,14.444
		c0,7.778-6.666,14.445-14.443,14.445c-7.779,0-14.445-6.667-14.445-14.445C175.555,135.444,182.222,128.778,191.112,128.778z
		 M124.444,158.778c-7.777,0-14.444-6.667-14.444-14.444s6.667-14.445,14.444-14.445c7.778,0,14.445,6.667,14.445,14.445
		S133.333,158.778,124.444,158.778z M326.668,229.889c0-37.777-37.779-67.778-80.002-67.778c-44.443,0-79.999,31.111-79.999,67.778
		c0,37.777,35.556,67.777,79.999,67.777c8.889,0,18.891-2.223,27.777-4.443L300,307.666l-5.557-23.334
		C313.334,269.889,326.668,251,326.668,229.889z M222.223,219.889c-5.555,0-10-4.445-10-10c0-5.557,4.443-10,10-10
		c5.555,0,10,4.444,10,10C233.332,214.332,227.777,219.889,222.223,219.889z M274.445,219.889c-5.557,0-10-4.445-10-10
		c0-5.557,4.443-10,10-10s10,4.444,10,10C284.445,215.443,280,219.889,274.445,219.889z"/>
	<rect fill="#50C232" width="55.5" height="400"/>
	<rect x="344.5" y="0.332" fill="#50C232" width="55.5" height="400"/>
	<rect fill="#50C232" width="400" height="66.5"/>
	<rect y="314.5" fill="#50C232" width="400" height="85.832"/>
</g>
</svg>
