<?xml version="1.0" encoding="utf-8"?>
<!-- Generator: Adobe Illustrator 16.0.0, SVG Export Plug-In . SVG Version: 6.00 Build 0)  -->
<!DOCTYPE svg PUBLIC "-//W3C//DTD SVG 1.1//EN" "http://www.w3.org/Graphics/SVG/1.1/DTD/svg11.dtd">
<svg version="1.1" id="图层_1" xmlns="http://www.w3.org/2000/svg" xmlns:xlink="http://www.w3.org/1999/xlink" x="0px" y="0px"
	 width="200px" height="200px" viewBox="0 0 200 200" enable-background="new 0 0 200 200" xml:space="preserve">
<path fill="#009AE6" d="M100,200c55,0,100-45,100-100S155,0,100,0S0,45,0,100S45,200,100,200L100,200z M90,63.125v-16.25h18.125
	v16.25H145v7.5h-36.875v10h30.625c0,0-0.625,5.625-4.375,16.25s-7.5,15.625-7.5,15.625l59.375,19.375c0,0-1.875,5.625-4.375,10.625
	s-6.25,10-6.25,10l-56.875-26.875c0,0-10.625,11.875-21.875,16.875c-10.625,5-23.75,8.75-36.875,5
	c-13.75-3.125-23.125-11.875-21.875-28.125C40,103.125,56.875,97.5,71.25,97.5s40.625,9.375,40.625,9.375s2.5-5,4.375-10.625
	c2.5-5.625,2.5-10.625,2.5-10.625H62.5V80H90V69.375H55.625v-7.5H90V63.125z M105.625,119.375c0,0-16.875,20-36.875,20
	S44.375,130,44.375,123.125s4.375-14.375,21.25-15.625S105.625,119.375,105.625,119.375L105.625,119.375z"/>
<rect fill="#009AE6" width="200" height="23.5"/>
<rect y="176.5" fill="#009AE6" width="200" height="23.5"/>
<rect y="15.167" fill="#009AE6" width="36.167" height="167"/>
<rect x="163.833" y="11.75" fill="#009AE6" width="36.167" height="110.417"/>
<rect x="163.833" y="154.167" fill="#009AE6" width="36.167" height="28"/>
<rect x="187.5" y="119.542" fill="#009AE6" width="12.583" height="39.625"/>
<rect x="181.916" y="147.167" fill="#009AE6" width="8.251" height="10"/>
</svg>
